<svg width="25" height="24" fill="none" xmlns="http://www.w3.org/2000/svg"><path d="M10.58.827a2.643 2.643 0 0 1 3.84 0l.692.728c.572.601 1.385.901 2.205.812l.992-.107c1.504-.164 2.84.971 2.943 2.498l.067 1.008a2.703 2.703 0 0 0 1.173 2.056l.829.563a2.717 2.717 0 0 1 .666 3.828l-.587.815a2.723 2.723 0 0 0-.408 2.338l.277.97c.42 1.47-.452 3-1.92 3.367l-.97.242c-.8.2-1.463.764-1.797 1.526l-.403.924a2.652 2.652 0 0 1-3.61 1.329l-.896-.445a2.636 2.636 0 0 0-2.346 0l-.896.445a2.652 2.652 0 0 1-3.61-1.33l-.404-.923a2.673 2.673 0 0 0-1.797-1.526l-.968-.242c-1.469-.367-2.34-1.896-1.921-3.367l.277-.97a2.723 2.723 0 0 0-.407-2.338l-.589-.815a2.717 2.717 0 0 1 .667-3.828l.829-.563A2.703 2.703 0 0 0 3.68 5.766l.067-1.008c.103-1.527 1.44-2.662 2.943-2.498l.992.107c.82.09 1.633-.21 2.205-.812l.691-.728Z" fill="#6448F1"/><path d="M11.192 14.742a2.997 2.997 0 0 0-.775-1.912L8.72 10.912 7.5 12.38C9.451 14.067 11.065 16 11.065 16h.974s1.315-2.176 5.461-7.272L16.037 8c-.883 1.054-2.601 3.521-3.482 4.803a3.264 3.264 0 0 0-.58 1.777l-.004.162h-.779Z" fill="#fff"/></svg>